<svg width="477" height="357" viewBox="0 0 477 357" fill="none" xmlns="http://www.w3.org/2000/svg">
<path d="M472.733 106.057C469.233 103.157 437.933 77.557 415.933 77.557C402.933 77.557 392.933 85.657 384.033 92.857C377.133 98.357 370.633 103.657 364.633 103.657C359.233 103.657 353.033 98.557 346.433 93.157C337.533 85.857 327.433 77.557 314.233 77.557C301.133 77.557 291.333 85.757 282.633 92.957C275.933 98.557 269.733 103.757 263.833 103.757C257.733 103.757 251.233 98.457 244.333 92.757C235.733 85.657 225.933 77.657 213.433 77.657C200.433 77.657 190.433 85.757 181.533 92.957C174.633 98.457 168.133 103.757 162.133 103.757C156.233 103.757 149.933 98.457 143.333 92.957C134.633 85.757 124.833 77.557 111.733 77.557C98.633 77.557 88.833 85.757 80.133 92.957C73.433 98.557 67.233 103.757 61.333 103.757C50.733 103.757 28.633 89.757 16.333 79.857C12.033 76.357 5.73296 77.057 2.23296 81.357C-1.26704 85.657 -0.567036 91.957 3.73296 95.457C7.33296 98.357 39.433 123.857 61.333 123.857C74.433 123.857 84.233 115.657 92.933 108.457C99.633 102.857 105.833 97.657 111.733 97.657C117.633 97.657 123.933 102.957 130.533 108.457C139.233 115.657 149.033 123.857 162.133 123.857C175.133 123.857 185.133 115.757 194.033 108.557C200.933 103.057 207.433 97.757 213.433 97.757C218.833 97.757 225.033 102.857 231.633 108.257C240.533 115.557 250.633 123.857 263.833 123.857C276.933 123.857 286.733 115.657 295.433 108.457C302.133 102.857 308.333 97.657 314.233 97.657C320.333 97.657 326.833 102.957 333.733 108.657C342.333 115.757 352.133 123.757 364.633 123.757C377.633 123.757 387.633 115.657 396.533 108.457C403.433 102.957 409.933 97.657 415.933 97.657C426.433 97.657 447.933 111.557 459.833 121.457C461.733 122.957 463.933 123.757 466.233 123.757C469.133 123.757 471.933 122.557 474.033 120.157C477.533 115.857 476.933 109.557 472.733 106.057Z" fill="white"/>
<path d="M3.73296 17.957C7.33296 20.857 39.433 46.357 61.333 46.357C74.433 46.357 84.233 38.157 92.933 30.957C99.633 25.357 105.833 20.157 111.733 20.157C117.633 20.157 123.933 25.457 130.533 30.957C139.233 38.157 149.033 46.357 162.133 46.357C175.133 46.357 185.133 38.257 194.033 31.057C200.933 25.557 207.433 20.257 213.433 20.257C218.833 20.257 225.033 25.357 231.633 30.757C240.533 38.057 250.633 46.357 263.833 46.357C276.933 46.357 286.733 38.157 295.433 30.957C302.133 25.357 308.333 20.157 314.233 20.157C320.333 20.157 326.833 25.457 333.733 31.157C342.333 38.257 352.133 46.257 364.633 46.257C377.633 46.257 387.633 38.157 396.533 30.957C403.433 25.457 409.933 20.157 415.933 20.157C426.433 20.157 447.933 34.057 459.833 43.957C461.733 45.457 463.933 46.257 466.233 46.257C469.133 46.257 471.933 45.057 474.033 42.657C477.533 38.357 476.933 32.057 472.733 28.557C469.233 25.557 437.933 0.0570068 415.933 0.0570068C402.933 0.0570068 392.933 8.15699 384.033 15.357C377.133 20.857 370.633 26.157 364.633 26.157C359.233 26.157 353.033 21.057 346.433 15.657C337.533 8.35704 327.433 0.0570068 314.233 0.0570068C301.133 0.0570068 291.333 8.25703 282.633 15.457C275.933 21.057 269.733 26.257 263.833 26.257C257.733 26.257 251.233 20.957 244.333 15.257C235.733 8.15702 225.933 0.157043 213.433 0.157043C200.433 0.157043 190.433 8.25703 181.533 15.457C174.633 20.957 168.133 26.257 162.133 26.257C156.233 26.257 149.933 20.957 143.333 15.457C134.633 8.25703 124.833 0.0570068 111.733 0.0570068C98.633 0.0570068 88.833 8.25703 80.133 15.457C73.433 21.057 67.233 26.257 61.333 26.257C50.733 26.257 28.633 12.257 16.333 2.35699C12.033 -1.14301 5.73296 -0.443006 2.23296 3.85699C-1.26704 8.15699 -0.567036 14.457 3.73296 17.957Z" fill="white"/>
<path d="M472.733 260.957C469.233 258.057 437.933 232.457 415.933 232.457C402.933 232.457 392.933 240.557 384.033 247.757C377.133 253.257 370.633 258.557 364.633 258.557C359.233 258.557 353.033 253.457 346.433 248.057C337.533 240.757 327.433 232.457 314.233 232.457C301.133 232.457 291.333 240.657 282.633 247.857C275.933 253.457 269.733 258.657 263.833 258.657C257.733 258.657 251.233 253.357 244.333 247.657C235.733 240.557 225.933 232.557 213.433 232.557C200.433 232.557 190.433 240.657 181.533 247.857C174.633 253.357 168.133 258.657 162.133 258.657C156.233 258.657 149.933 253.357 143.333 247.857C134.633 240.657 124.833 232.457 111.733 232.457C98.633 232.457 88.833 240.657 80.133 247.857C73.433 253.457 67.233 258.657 61.333 258.657C50.733 258.657 28.633 244.657 16.333 234.757C12.033 231.257 5.73296 231.957 2.23296 236.257C-1.26704 240.557 -0.567036 246.857 3.73296 250.357C7.33296 253.257 39.433 278.757 61.333 278.757C74.433 278.757 84.233 270.557 92.933 263.357C99.633 257.757 105.833 252.557 111.733 252.557C117.633 252.557 123.933 257.857 130.533 263.357C139.233 270.557 149.033 278.757 162.133 278.757C175.133 278.757 185.133 270.657 194.033 263.457C200.933 257.957 207.433 252.657 213.433 252.657C218.833 252.657 225.033 257.757 231.633 263.157C240.533 270.457 250.633 278.757 263.833 278.757C276.933 278.757 286.733 270.557 295.433 263.357C302.133 257.757 308.333 252.557 314.233 252.557C320.333 252.557 326.833 257.857 333.733 263.557C342.333 270.657 352.133 278.657 364.633 278.657C377.633 278.657 387.633 270.557 396.533 263.357C403.433 257.857 409.933 252.557 415.933 252.557C426.433 252.557 447.933 266.457 459.833 276.357C461.733 277.857 463.933 278.657 466.233 278.657C469.133 278.657 471.933 277.457 474.033 275.057C477.533 270.757 476.933 264.457 472.733 260.957Z" fill="white"/>
<path d="M472.733 183.557C469.233 180.657 437.933 155.057 415.933 155.057C402.933 155.057 392.933 163.157 384.033 170.357C377.133 175.857 370.633 181.157 364.633 181.157C359.233 181.157 353.033 176.057 346.433 170.657C337.533 163.357 327.433 155.057 314.233 155.057C301.133 155.057 291.333 163.257 282.633 170.457C275.933 176.057 269.733 181.257 263.833 181.257C257.733 181.257 251.233 175.957 244.333 170.257C235.733 163.157 225.933 155.157 213.433 155.157C200.433 155.157 190.433 163.257 181.533 170.457C174.633 175.957 168.133 181.257 162.133 181.257C156.233 181.257 149.933 175.957 143.333 170.457C134.633 163.257 124.833 155.057 111.733 155.057C98.633 155.057 88.833 163.257 80.133 170.457C73.433 176.057 67.233 181.257 61.333 181.257C50.733 181.257 28.633 167.257 16.333 157.357C12.033 153.857 5.73296 154.557 2.23296 158.857C-1.26704 163.157 -0.567036 169.457 3.73296 172.957C7.33296 175.857 39.433 201.357 61.333 201.357C74.433 201.357 84.233 193.157 92.933 185.957C99.633 180.357 105.833 175.157 111.733 175.157C117.633 175.157 123.933 180.457 130.533 185.957C139.233 193.157 149.033 201.357 162.133 201.357C175.133 201.357 185.133 193.257 194.033 186.057C200.933 180.557 207.433 175.257 213.433 175.257C218.833 175.257 225.033 180.357 231.633 185.757C240.533 193.057 250.633 201.357 263.833 201.357C276.933 201.357 286.733 193.157 295.433 185.957C302.133 180.357 308.333 175.157 314.233 175.157C320.333 175.157 326.833 180.457 333.733 186.157C342.333 193.257 352.133 201.257 364.633 201.257C377.633 201.257 387.633 193.157 396.533 185.957C403.433 180.457 409.933 175.157 415.933 175.157C426.433 175.157 447.933 189.057 459.833 198.957C461.733 200.457 463.933 201.257 466.233 201.257C469.133 201.257 471.933 199.957 474.033 197.657C477.533 193.357 476.933 187.057 472.733 183.557Z" fill="white"/>
<path d="M472.733 338.457C469.233 335.457 437.933 309.957 415.933 309.957C402.933 309.957 392.933 318.057 384.033 325.257C377.133 330.757 370.633 336.057 364.633 336.057C359.233 336.057 353.033 330.957 346.433 325.557C337.533 318.257 327.433 309.957 314.233 309.957C301.133 309.957 291.333 318.157 282.633 325.357C275.933 330.957 269.733 336.157 263.833 336.157C257.733 336.157 251.233 330.857 244.333 325.157C235.733 318.057 225.933 310.057 213.433 310.057C200.433 310.057 190.433 318.157 181.533 325.357C174.633 330.857 168.133 336.157 162.133 336.157C156.233 336.157 149.933 330.857 143.333 325.357C134.633 318.157 124.833 309.957 111.733 309.957C98.633 309.957 88.833 318.157 80.133 325.357C73.433 330.957 67.233 336.157 61.333 336.157C50.733 336.157 28.633 322.157 16.333 312.257C12.033 308.757 5.73296 309.457 2.23296 313.757C-1.26704 318.057 -0.567036 324.357 3.73296 327.857C7.33296 330.757 39.433 356.257 61.333 356.257C74.433 356.257 84.233 348.057 92.933 340.857C99.633 335.257 105.833 330.057 111.733 330.057C117.633 330.057 123.933 335.357 130.533 340.857C139.233 348.057 149.033 356.257 162.133 356.257C175.133 356.257 185.133 348.157 194.033 340.957C200.933 335.457 207.433 330.157 213.433 330.157C218.833 330.157 225.033 335.257 231.633 340.657C240.533 347.957 250.633 356.257 263.833 356.257C276.933 356.257 286.733 348.057 295.433 340.857C302.133 335.257 308.333 330.057 314.233 330.057C320.333 330.057 326.833 335.357 333.733 341.057C342.333 348.157 352.133 356.157 364.633 356.157C377.633 356.157 387.633 348.057 396.533 340.857C403.433 335.357 409.933 330.057 415.933 330.057C426.433 330.057 447.933 343.957 459.833 353.857C461.733 355.357 463.933 356.157 466.233 356.157C469.133 356.157 471.933 354.957 474.033 352.557C477.533 348.257 476.933 341.957 472.733 338.457Z" fill="white"/>
</svg>
