<svg width="488" height="488" viewBox="0 0 488 488" fill="none" xmlns="http://www.w3.org/2000/svg">
<path d="M244 111.6C171 111.6 111.6 171 111.6 244C111.6 317 171 376.4 244 376.4C317 376.4 376.4 317 376.4 244C376.4 171 317 111.6 244 111.6ZM244 356.4C182 356.4 131.6 306 131.6 244C131.6 182 182 131.6 244 131.6C306 131.6 356.4 182 356.4 244C356.4 306 306 356.4 244 356.4Z" fill="white"/>
<path d="M244 70.5C249.5 70.5 254 66 254 60.5V10C254 4.5 249.5 0 244 0C238.5 0 234 4.5 234 10V60.5C234 66 238.5 70.5 244 70.5Z" fill="white"/>
<path d="M244 417.5C238.5 417.5 234 422 234 427.5V478C234 483.5 238.5 488 244 488C249.5 488 254 483.5 254 478V427.5C254 422 249.5 417.5 244 417.5Z" fill="white"/>
<path d="M376.3 121.7C378.9 121.7 381.4 120.7 383.3 118.8L424.6 77.5C428.5 73.6 428.5 67.3 424.6 63.4C420.7 59.5 414.4 59.5 410.5 63.4L369.2 104.7C365.3 108.6 365.3 114.9 369.2 118.8C371.2 120.7 373.7 121.7 376.3 121.7Z" fill="white"/>
<path d="M104.6 118.8C106.6 120.7 109.1 121.7 111.7 121.7C114.3 121.7 116.8 120.7 118.7 118.8C122.6 114.9 122.6 108.6 118.7 104.7L77.4 63.4C73.5 59.5 67.2 59.5 63.3 63.4C59.4 67.3 59.4 73.6 63.3 77.5L104.6 118.8Z" fill="white"/>
<path d="M383.3 369.3C379.4 365.4 373.1 365.4 369.2 369.3C365.3 373.2 365.3 379.5 369.2 383.4L410.5 424.7C412.5 426.6 415 427.6 417.6 427.6C420.1 427.6 422.7 426.6 424.6 424.7C428.5 420.8 428.5 414.5 424.6 410.6L383.3 369.3Z" fill="white"/>
<path d="M104.6 369.3L63.3 410.6C59.4 414.5 59.4 420.8 63.3 424.7C65.3 426.6 67.8 427.6 70.4 427.6C73 427.6 75.5 426.6 77.4 424.7L118.7 383.4C122.6 379.5 122.6 373.2 118.7 369.3C114.8 365.4 108.5 365.4 104.6 369.3Z" fill="white"/>
<path d="M478 234H427.5C422 234 417.5 238.5 417.5 244C417.5 249.5 422 254 427.5 254H478C483.5 254 488 249.5 488 244C488 238.5 483.5 234 478 234Z" fill="white"/>
<path d="M70.5 244C70.5 238.5 66 234 60.5 234H10C4.5 234 0 238.5 0 244C0 249.5 4.5 254 10 254H60.5C66 254 70.5 249.5 70.5 244Z" fill="white"/>
</svg>
