<svg width="445" height="321" viewBox="0 0 445 321" fill="none" xmlns="http://www.w3.org/2000/svg">
<path d="M288.7 0.5C230.8 0.5 177.4 34.4 150.2 87.7C139.2 84.1 127.5 82.1 116.5 82.1C52.3 82.1 0 135.6 0 201.3C0 267 52.3 320.5 116.5 320.5H288.7C374.9 320.5 445 248.7 445 160.5C445 72.3 374.9 0.5 288.7 0.5ZM288.7 300.5H116.5C63.3 300.5 20 256 20 201.3C20 146.6 63.3 102.1 116.5 102.1C127.7 102.1 140.4 104.8 151.4 109.5C156.5 111.6 162.3 109.3 164.5 104.3C187 53.4 235.7 20.5 288.7 20.5C363.9 20.5 425 83.3 425 160.5C425 237.7 363.9 300.5 288.7 300.5Z" fill="white"/>
</svg>
