<svg width="489" height="319" viewBox="0 0 489 319" fill="none" xmlns="http://www.w3.org/2000/svg">
<path d="M367 74C356.7 74 346.5 75.3 336.8 77.8C328.4 57 314.1 38.4 295.9 24.9C274.7 9.20002 249.6 0.900024 223.4 0.900024C178.9 0.900024 137.8 26.1 116.3 65.8C108.2 63.4 99.6 62.1 91.6 62.1C41.1 62.1 0 103.3 0 153.9C0 204.5 41.1 245.7 91.6 245.7H145.6C154.5 287 191.2 318.1 235.1 318.1H367C434.3 318.1 489 263.2 489 195.8C489 128.5 434.3 74 367 74ZM143.5 225.2H91.5C52.1 225.4 20 193.2 20 153.6C20 114 52.1 81.8 91.6 81.8C99.9 81.8 109.3 83.7 117.5 87.1C122.5 89.2 128.2 86.9 130.5 82C147.3 44.7 183.9 20.6 223.5 20.6C264.6 20.6 302.3 46.3 317.9 84C293.2 94.8 272.5 113.6 259.6 138C251.8 135.9 243.7 134.9 235.1 134.9C210.7 134.9 187.7 144.3 170.4 161.4C153.2 178.4 143.7 201 143.5 225.2ZM367 297.8H235.1C195.6 297.8 163.5 265.6 163.5 226C163.5 186.9 195.6 155 235.1 155C244.5 155 253.1 156.5 261.2 159.7C266.2 161.6 271.8 159.3 274 154.3C289.9 117.6 326.4 93.9 367 93.9C423.3 93.9 469 139.5 469 195.5C469 251.9 423.2 297.8 367 297.8Z" fill="white"/>
</svg>
