<svg width="340" height="490" viewBox="0 0 340 490" fill="none" xmlns="http://www.w3.org/2000/svg">
<path d="M248.2 253.3C244.4 257.2 244.5 263.5 248.4 267.4L270.1 288.6C272.1 290.6 274.6 291.5 277.1 291.5C279.7 291.5 282.3 290.5 284.2 288.4C288 284.5 287.9 278.2 284 274.3L262.3 253.1C258.4 249.3 252.1 249.4 248.2 253.3Z" fill="white"/>
<path d="M77.7 253.2L56 274.4C52 278.2 51.9 284.6 55.8 288.5C57.7 290.5 60.3 291.5 62.9 291.5C65.5 291.5 68 290.5 69.9 288.7L91.6 267.5C95.6 263.7 95.7 257.3 91.8 253.4C88 249.4 81.6 249.3 77.7 253.2Z" fill="white"/>
<path d="M255.4 82C257.9 82 260.3 81.1 262.2 79.3L283.9 58.9C287.9 55.1 288.1 48.8 284.3 44.8C280.5 40.8 274.2 40.6 270.2 44.4L248.5 64.8C244.5 68.6 244.3 74.9 248.1 78.9C250.1 80.9 252.7 82 255.4 82Z" fill="white"/>
<path d="M77.7 79.3C79.7 81.1 82.1001 82 84.6001 82C87.2001 82 89.9001 80.9 91.8001 78.9C95.6001 74.9 95.4 68.6 91.4 64.8L69.7 44.4C65.7 40.6 59.4001 40.8 55.6001 44.8C51.8001 48.8 52 55.1 56 58.9L77.7 79.3Z" fill="white"/>
<path d="M160 292.5V323.1C160 328.6 164.5 333.1 170 333.1C175.5 333.1 180 328.6 180 323.1V292.5C180 287 175.5 282.5 170 282.5C164.5 282.5 160 287 160 292.5Z" fill="white"/>
<path d="M170 50.6C175.5 50.6 180 46.1 180 40.6V10C180 4.5 175.5 0 170 0C164.5 0 160 4.5 160 10V40.6C160 46.1 164.5 50.6 170 50.6Z" fill="white"/>
<path d="M330 156.5H298.7C293.2 156.5 288.7 161 288.7 166.5C288.7 172 293.2 176.5 298.7 176.5H330C335.5 176.5 340 172 340 166.5C340 161 335.5 156.5 330 156.5Z" fill="white"/>
<path d="M41.3 156.5H10C4.5 156.5 0 161 0 166.5C0 172 4.5 176.5 10 176.5H41.3C46.8 176.5 51.3 172 51.3 166.5C51.3 161 46.8 156.5 41.3 156.5Z" fill="white"/>
<path d="M102.5 233.5C120.4 251.5 144.2 261.5 169.6 261.5C222.2 261.5 265 218.7 265 166.1C265 140.7 255.1 116.8 237 99C219 81.3 195.1 71.5 169.6 71.5C144.2 71.5 120.4 81.3 102.6 99.1C84.8 116.8 75 140.7 75 166.1C75 191.6 84.7 215.5 102.5 233.5ZM169.6 91.5C211.2 91.5 245 125 245 166.1C245 207.7 211.2 241.5 169.6 241.5C128.5 241.5 95 207.7 95 166.1C95 124.3 127.8 91.5 169.6 91.5Z" fill="white"/>
<path d="M84.7 355.4H84.6C81.4 355.4 78.4 356.9 76.5 359.5C70.9 367.1 52.9 393.1 52.9 407C52.9 424.2 67.1 438.2 84.6 438.2C101.6 438.2 115.4 424.2 115.5 407C115.5 393.2 98.1 367.3 92.8 359.7C91 357 87.9 355.4 84.7 355.4ZM84.6 418.2C78 418.2 72.9 413.3 72.9 407C72.9 403.7 77.8 394 84.4 383.5C90.8 394.1 95.4 403.7 95.5 407C95.5 413.1 90.5 418.2 84.6 418.2Z" fill="white"/>
<path d="M255.4 355.4C252.2 355.4 249.2 356.9 247.3 359.5C241.7 367.1 223.7 393.1 223.7 407C223.7 424.2 237.9 438.2 255.4 438.2C272.9 438.2 287.1 424.2 287.1 407C287.1 393 269 367.1 263.5 359.5C261.6 356.9 258.6 355.4 255.4 355.4ZM255.4 418.3C248.8 418.3 243.7 413.4 243.7 407.1C243.8 403.7 248.7 393.9 255.4 383.3C262.1 393.9 267 403.7 267.1 407.1C267.1 413.4 262 418.3 255.4 418.3Z" fill="white"/>
<path d="M169.5 407.2C166.2 407.3 163.1 408.9 161.3 411.6C156 419.4 138.7 445.8 138.7 459.6C138.7 476.1 152.9 490 169.6 490C187.1 490 201.3 476.4 201.3 459.5C201.3 445.7 183.3 419.2 177.8 411.4C175.9 408.7 172.8 407.1 169.5 407.2ZM169.7 470C164 470 158.8 465 158.8 459.6C158.8 456.2 163.4 446.4 169.8 435.6C176.4 446.4 181.2 456.2 181.4 459.6C181.4 465.2 176 470 169.7 470Z" fill="white"/>
</svg>
