<svg width="490" height="471" viewBox="0 0 490 471" fill="none" xmlns="http://www.w3.org/2000/svg">
<path d="M180.1 361.6C176.2 357.7 169.9 357.7 166 361.6L145.4 382.2C141.5 386.1 141.5 392.4 145.4 396.3C147.4 398.2 149.9 399.2 152.5 399.2C155 399.2 157.6 398.2 159.5 396.2L180.1 375.7C184 371.8 184 365.5 180.1 361.6Z" fill="white"/>
<path d="M246.6 361.7L226.8 382.3C223 386.2 223.1 392.6 227.1 396.4C229 398.3 231.5 399.2 234 399.2C236.7 399.2 239.3 398.1 241.2 396.1L261 375.5C264.8 371.6 264.7 365.2 260.7 361.4C256.8 357.6 250.4 357.7 246.6 361.7Z" fill="white"/>
<path d="M328.3 361.6L307.7 382.2C303.8 386.1 303.8 392.4 307.7 396.3C309.7 398.2 312.2 399.2 314.8 399.2C317.4 399.2 319.9 398.2 321.8 396.3L342.4 375.7C346.3 371.8 346.3 365.5 342.4 361.6C338.5 357.7 332.2 357.7 328.3 361.6Z" fill="white"/>
<path d="M409.9 361.6L389.3 382.2C385.4 386.1 385.4 392.4 389.3 396.3C391.3 398.2 393.8 399.2 396.4 399.2C398.9 399.2 401.5 398.2 403.5 396.2L424 375.7C427.9 371.8 427.9 365.5 424 361.6C420.1 357.7 413.8 357.7 409.9 361.6Z" fill="white"/>
<path d="M84.4 361.6L63.8 382.2C59.9 386.1 59.9 392.4 63.8 396.3C65.8 398.2 68.3 399.2 70.9 399.2C73.5 399.2 76 398.2 77.9 396.3L98.5 375.7C102.4 371.8 102.4 365.5 98.5 361.6C94.6 357.7 88.3 357.7 84.4 361.6Z" fill="white"/>
<path d="M206.4 432.6L185.8 453.2C181.9 457.1 181.9 463.4 185.8 467.3C187.8 469.2 190.3 470.2 192.9 470.2C195.4 470.2 198 469.2 199.9 467.3L220.5 446.7C224.4 442.8 224.4 436.5 220.5 432.6C216.6 428.7 210.3 428.7 206.4 432.6Z" fill="white"/>
<path d="M287.9 432.6L267.3 453.2C263.4 457.1 263.4 463.4 267.3 467.3C269.3 469.2 271.8 470.2 274.4 470.2C277 470.2 279.5 469.2 281.5 467.3L302 446.7C305.9 442.8 305.9 436.5 302 432.6C298.1 428.7 291.8 428.7 287.9 432.6Z" fill="white"/>
<path d="M368.6 432.7L348.8 453.3C345 457.2 345.1 463.6 349.1 467.4C351 469.3 353.5 470.2 356 470.2C358.6 470.2 361.2 469.2 363.2 467.1L383 446.5C386.8 442.6 386.7 436.2 382.7 432.4C378.8 428.6 372.4 428.7 368.6 432.7Z" fill="white"/>
<path d="M124.7 432.7L104.9 453.3C101.1 457.2 101.2 463.6 105.2 467.4C107.1 469.3 109.6 470.2 112.1 470.2C114.7 470.2 117.3 469.2 119.3 467.1L139.1 446.5C142.9 442.6 142.8 436.2 138.8 432.4C134.9 428.6 128.5 428.7 124.7 432.7Z" fill="white"/>
<path d="M397.5 62.0999C389.5 62.0999 380.9 63.3999 372.8 65.7999C351.3 26.0999 310.2 0.899902 265.7 0.899902C239.5 0.899902 214.4 9.1999 193.2 24.8999C175.1 38.2999 160.9 56.6999 152.5 77.2999C142.7 74.7999 132.4 73.3999 122 73.3999C54.7 73.3999 0 127.9 0 195C0 262.4 54.7 317.3 122 317.3H253.9C297.6 317.3 334.2 286.5 343.3 245.5H397.5C448 245.5 489.1 204.3 489.1 153.7C489.1 103.3 448 62.0999 397.5 62.0999ZM253.8 297.4H122C65.7 297.4 20 251.5 20 195.1C20 139.1 65.8 93.4999 122 93.4999C162.6 93.4999 199.1 117.2 215 153.9C217.1 158.8 222.8 161.2 227.8 159.3C236 156.2 244.5 154.6 253.9 154.6C293.4 154.6 325.5 186.4 325.5 225.6C325.4 265.2 293.3 297.4 253.8 297.4ZM397.5 225.6H345.4C345.4 201.2 335.8 178.3 318.5 161.1C301.2 144 278.3 134.6 253.8 134.6C245.2 134.6 237.1 135.6 229.3 137.7C216.5 113.4 195.9 94.6999 171.4 83.7999C187.1 46.2999 224.7 20.7999 265.6 20.7999C305.3 20.7999 341.8 44.8999 358.6 82.1999C360.8 87.0999 366.6 89.3999 371.6 87.2999C379.7 83.8999 389.2 81.9999 397.5 81.9999C437 81.9999 469.1 114.2 469.1 153.8C469.1 193.4 437 225.6 397.5 225.6Z" fill="white"/>
</svg>
