<svg width="410" height="488" viewBox="0 0 410 488" fill="none" xmlns="http://www.w3.org/2000/svg">
<path d="M239.9 327L227.3 320.7L239.9 314.4C244.8 311.9 246.8 305.9 244.4 301C241.9 296.1 235.9 294.1 231 296.5L215 304.5V285.6C215 280.1 210.5 275.6 205 275.6C199.5 275.6 195 280.1 195 285.6V304.5L179 296.5C174.1 294 168.1 296 165.6 301C163.1 305.9 165.1 311.9 170.1 314.4L182.7 320.7L170.1 327C165.2 329.5 163.2 335.5 165.6 340.4C167.4 343.9 170.9 345.9 174.5 345.9C176 345.9 177.5 345.6 179 344.8L195 336.8V355.7C195 361.2 199.5 365.7 205 365.7C210.5 365.7 215 361.2 215 355.7V336.8L231 344.8C232.4 345.5 234 345.9 235.5 345.9C239.2 345.9 242.7 343.9 244.4 340.4C246.9 335.4 244.9 329.4 239.9 327Z" fill="white"/>
<path d="M79.9 301C77.4 296.1 71.4 294.1 66.5 296.5L50.5 304.5V285.6C50.5 280.1 46 275.6 40.5 275.6C35 275.6 30.5 280.1 30.5 285.6V304.5L14.5 296.5C9.6 294 3.59999 296 1.09999 301C-1.40001 305.9 0.599994 311.9 5.59999 314.4L18.2 320.7L5.59999 327C0.699994 329.5 -1.30001 335.5 1.09999 340.4C2.89999 343.9 6.4 345.9 10 345.9C11.5 345.9 13 345.6 14.5 344.8L30.5 336.8V355.7C30.5 361.2 35 365.7 40.5 365.7C46 365.7 50.5 361.2 50.5 355.7V336.8L66.5 344.8C67.9 345.5 69.5 345.9 71 345.9C74.7 345.9 78.2 343.9 79.9 340.4C82.3 335.4 80.3 329.4 75.4 327L62.8 320.7L75.4 314.4C80.3 311.9 82.3 305.9 79.9 301Z" fill="white"/>
<path d="M404.4 326.9L391.7 320.6L404.4 314.3C409.3 311.8 411.4 305.8 408.9 300.9C406.4 296 400.4 293.9 395.5 296.4L379.1 304.5V285.5C379.1 280 374.6 275.5 369.1 275.5C363.6 275.5 359.1 280 359.1 285.5V304.5L342.7 296.4C337.8 293.9 331.8 296 329.3 300.9C326.8 305.8 328.9 311.8 333.8 314.3L346.5 320.6L333.8 326.9C328.9 329.4 326.8 335.4 329.3 340.3C331 343.8 334.6 345.9 338.3 345.9C339.8 345.9 341.3 345.6 342.7 344.9L359.1 336.8V355.8C359.1 361.3 363.6 365.8 369.1 365.8C374.6 365.8 379.1 361.3 379.1 355.8V336.8L395.5 344.9C396.9 345.6 398.4 345.9 399.9 345.9C403.6 345.9 407.1 343.9 408.9 340.3C411.4 335.4 409.4 329.4 404.4 326.9Z" fill="white"/>
<path d="M162.7 423.1C160.2 418.2 154.3 416.1 149.3 418.6L132.9 426.7V407.7C132.9 402.2 128.4 397.7 122.9 397.7C117.4 397.7 112.9 402.2 112.9 407.7V426.7L96.5 418.6C91.6 416.1 85.6 418.2 83.1 423.1C80.6 428 82.7 434 87.6 436.5L100.3 442.8L87.6 449.1C82.7 451.6 80.6 457.6 83.1 462.5C84.8 466 88.4 468.1 92.1 468.1C93.6 468.1 95.1 467.8 96.5 467.1L112.9 459V478C112.9 483.5 117.4 488 122.9 488C128.4 488 132.9 483.5 132.9 478V459L149.3 467.1C150.7 467.8 152.2 468.1 153.7 468.1C157.4 468.1 160.9 466.1 162.7 462.5C165.2 457.5 163.1 451.5 158.2 449.1L145.5 442.8L158.2 436.5C163.1 434 165.2 428 162.7 423.1Z" fill="white"/>
<path d="M326.9 423.1C324.4 418.2 318.4 416.2 313.5 418.6L297.5 426.6V407.7C297.5 402.2 293 397.7 287.5 397.7C282 397.7 277.5 402.2 277.5 407.7V426.6L261.5 418.6C256.6 416.1 250.6 418.1 248.1 423.1C245.6 428 247.6 434 252.6 436.5L265.2 442.8L252.6 449.1C247.7 451.6 245.7 457.6 248.1 462.5C249.9 466 253.4 468 257 468C258.5 468 260 467.7 261.5 466.9L277.5 458.9V477.8C277.5 483.3 282 487.8 287.5 487.8C293 487.8 297.5 483.3 297.5 477.8V458.9L313.5 466.9C314.9 467.6 316.5 468 318 468C321.7 468 325.2 466 326.9 462.5C329.3 457.6 327.3 451.6 322.4 449.1L309.8 442.8L322.4 436.5C327.3 434 329.3 428 326.9 423.1Z" fill="white"/>
<path d="M122.9 244.4H256.3C324.2 244.4 379.6 189.5 379.6 122.2C379.6 54.8 324.3 0 256.3 0C211.3 0 169.7 25.1 148 64.8C139.7 62.3 131.1 61 122.9 61C71.9 61 30.4 102.1 30.4 152.7C30.4 203.3 71.9 244.4 122.9 244.4ZM122.9 81C131.4 81 140.9 82.9 149.1 86.4C154.1 88.4 159.8 86.2 162 81.3C179 44.1 216 20 256.2 20C313.2 20 359.5 65.8 359.5 122.2C359.5 178.5 313.2 224.4 256.2 224.4H122.9C82.9 224.4 50.4 192.2 50.4 152.7C50.4 113.2 82.9 81 122.9 81Z" fill="white"/>
</svg>
