<svg width="488" height="1011" viewBox="0 0 488 1011" fill="none" xmlns="http://www.w3.org/2000/svg">
<path d="M447.325 675.622L409.425 637.522C407.525 635.722 405.025 634.622 402.325 634.622C399.625 634.622 397.125 635.622 395.225 637.522L369.625 663.222C365.725 667.122 365.725 673.422 369.625 677.322C373.525 681.222 379.825 681.222 383.725 677.322L402.225 658.722L426.025 682.622L398.125 710.722H47.925C45.225 710.722 42.725 711.722 40.825 713.622L2.925 751.722C-0.975 755.622 -0.975 761.922 2.925 765.822L40.825 803.922C42.725 805.722 45.225 806.822 47.925 806.822H346.925L362.525 822.522L343.925 841.122C340.025 845.022 340.025 851.322 343.925 855.222C345.925 857.122 348.425 858.122 351.025 858.122C353.525 858.122 356.125 857.122 358.025 855.322L383.625 829.622C387.525 825.722 387.525 819.422 383.625 815.522L358.025 789.822C356.125 788.022 353.625 786.922 350.925 786.922H51.925L24.025 758.822L51.925 730.722H402.325C405.025 730.722 407.525 729.722 409.425 727.822L447.325 689.722C451.225 685.823 451.225 679.523 447.325 675.622Z" fill="white"/>
<path d="M484.825 751.522L459.225 726.822C455.325 722.922 448.925 723.022 445.125 727.022C441.225 730.922 441.325 737.322 445.325 741.122L463.625 758.822L445.225 777.322C441.325 781.222 441.325 787.522 445.225 791.422C447.225 793.322 449.725 794.322 452.325 794.322C454.925 794.322 457.525 793.322 459.325 791.422L484.925 765.722C486.825 763.922 487.825 761.322 487.825 758.622C487.825 755.922 486.725 753.422 484.825 751.522Z" fill="white"/>
<path d="M187.125 654.422H313.125C315.725 654.422 318.325 653.422 320.225 651.422L358.125 613.322C362.025 609.422 362.025 603.122 358.125 599.222L320.225 561.122C318.325 559.222 315.725 558.222 313.025 558.222C310.325 558.222 307.825 559.422 305.925 561.322L281.325 587.022C277.525 590.922 277.625 597.322 281.625 601.122C285.525 604.922 291.925 604.822 295.725 600.822L313.225 582.522L336.825 606.322L308.925 634.422H187.125C181.625 634.422 177.125 638.922 177.125 644.422C177.125 649.922 181.625 654.422 187.125 654.422Z" fill="white"/>
<path d="M128.725 877.622C124.025 874.822 117.925 876.322 115.025 881.022L77.125 943.822C74.325 948.522 75.825 954.622 80.525 957.522C82.225 958.422 83.925 958.922 85.725 958.922C89.125 958.922 92.425 957.222 94.225 954.122L132.125 891.322C134.925 886.622 133.425 880.522 128.725 877.622Z" fill="white"/>
<path d="M204.525 864.222C199.825 861.422 193.625 863.022 190.825 867.722L115.025 995.222C112.225 999.922 113.825 1006.12 118.525 1008.92C120.125 1009.82 121.925 1010.32 123.625 1010.32C127.025 1010.32 130.325 1008.62 132.225 1005.42L208.025 877.922C210.825 873.222 209.225 867.022 204.525 864.222Z" fill="white"/>
<path d="M280.325 851.822C275.625 849.022 269.425 850.622 266.625 855.322L228.725 919.122C225.925 923.822 227.525 930.022 232.225 932.822C233.825 933.722 235.625 934.222 237.325 934.222C240.725 934.222 244.025 932.422 245.925 929.322L283.825 865.522C286.625 860.822 285.025 854.622 280.325 851.822Z" fill="white"/>
</svg>
