<svg width="112" height="112" viewBox="0 0 112 112" fill="none" xmlns="http://www.w3.org/2000/svg">
<path d="M55.9999 25.613C39.2458 25.613 25.613 39.2458 25.613 55.9999C25.613 72.754 39.2458 86.3868 55.9999 86.3868C72.754 86.3868 86.3868 72.754 86.3868 55.9999C86.3868 39.2458 72.754 25.613 55.9999 25.613ZM55.9999 81.7966C41.7704 81.7966 30.2032 70.2294 30.2032 55.9999C30.2032 41.7704 41.7704 30.2032 55.9999 30.2032C70.2294 30.2032 81.7966 41.7704 81.7966 55.9999C81.7966 70.2294 70.2294 81.7966 55.9999 81.7966Z" fill="#FFFCFC"/>
<path d="M56 16.1803C57.2623 16.1803 58.2951 15.1475 58.2951 13.8852V2.29508C58.2951 1.03279 57.2623 0 56 0C54.7377 0 53.705 1.03279 53.705 2.29508V13.8852C53.705 15.1475 54.7377 16.1803 56 16.1803Z" fill="#FFFCFC"/>
<path d="M56 95.8196C54.7377 95.8196 53.705 96.8524 53.705 98.1147V109.705C53.705 110.967 54.7377 112 56 112C57.2623 112 58.2951 110.967 58.2951 109.705V98.1147C58.2951 96.8524 57.2623 95.8196 56 95.8196Z" fill="#FFFCFC"/>
<path d="M86.364 27.931C86.9608 27.931 87.5345 27.7015 87.9706 27.2655L97.4493 17.7868C98.3444 16.8917 98.3444 15.4458 97.4493 14.5507C96.5542 13.6556 95.1083 13.6556 94.2132 14.5507L84.7345 24.0294C83.8395 24.9245 83.8395 26.3704 84.7345 27.2655C85.1936 27.7015 85.7673 27.931 86.364 27.931Z" fill="#FFFCFC"/>
<path d="M24.0066 27.2655C24.4656 27.7015 25.0394 27.931 25.6361 27.931C26.2328 27.931 26.8066 27.7015 27.2426 27.2655C28.1377 26.3704 28.1377 24.9245 27.2426 24.0294L17.7639 14.5507C16.8689 13.6556 15.423 13.6556 14.5279 14.5507C13.6328 15.4458 13.6328 16.8917 14.5279 17.7868L24.0066 27.2655Z" fill="#FFFCFC"/>
<path d="M87.9706 84.7572C87.0755 83.8622 85.6296 83.8622 84.7345 84.7572C83.8395 85.6523 83.8395 87.0982 84.7345 87.9933L94.2132 97.472C94.6722 97.9081 95.246 98.1376 95.8427 98.1376C96.4165 98.1376 97.0132 97.9081 97.4493 97.472C98.3444 96.5769 98.3444 95.131 97.4493 94.236L87.9706 84.7572Z" fill="#FFFCFC"/>
<path d="M24.0066 84.7572L14.5279 94.236C13.6328 95.131 13.6328 96.5769 14.5279 97.472C14.9869 97.9081 15.5607 98.1376 16.1574 98.1376C16.7541 98.1376 17.3279 97.9081 17.7639 97.472L27.2426 87.9933C28.1377 87.0982 28.1377 85.6523 27.2426 84.7572C26.3476 83.8622 24.9017 83.8622 24.0066 84.7572Z" fill="#FFFCFC"/>
<path d="M109.705 53.7048H98.1148C96.8525 53.7048 95.8197 54.7376 95.8197 55.9999C95.8197 57.2622 96.8525 58.295 98.1148 58.295H109.705C110.967 58.295 112 57.2622 112 55.9999C112 54.7376 110.967 53.7048 109.705 53.7048Z" fill="#FFFCFC"/>
<path d="M16.1803 55.9999C16.1803 54.7376 15.1475 53.7048 13.8852 53.7048H2.29508C1.03279 53.7048 0 54.7376 0 55.9999C0 57.2622 1.03279 58.295 2.29508 58.295H13.8852C15.1475 58.295 16.1803 57.2622 16.1803 55.9999Z" fill="#FFFCFC"/>
</svg>
