<svg width="489" height="460" viewBox="0 0 489 460" fill="none" xmlns="http://www.w3.org/2000/svg">
<path d="M336.079 50.4898C341.579 50.4898 346.079 45.9898 346.079 40.4898V10.5898C346.079 5.08984 341.579 0.589844 336.079 0.589844C330.579 0.589844 326.079 5.08984 326.079 10.5898V40.4898C326.079 45.9898 330.579 50.4898 336.079 50.4898Z" fill="white"/>
<path d="M417.779 81.0897C420.279 81.0897 422.879 80.0896 424.779 78.1896L444.679 58.2897C448.579 54.3897 448.579 48.0896 444.679 44.1896C440.779 40.2896 434.479 40.2896 430.579 44.1896L410.679 64.0897C406.779 67.9897 406.779 74.2896 410.679 78.1896C412.679 80.0896 415.179 81.0897 417.779 81.0897Z" fill="white"/>
<path d="M424.679 227.99C420.779 224.09 414.479 224.09 410.579 227.99C406.679 231.89 406.679 238.19 410.579 242.09L430.479 261.99C432.479 263.89 434.979 264.89 437.579 264.89C440.179 264.89 442.679 263.89 444.579 261.99C448.479 258.09 448.479 251.79 444.579 247.89L424.679 227.99Z" fill="white"/>
<path d="M478.079 133.09H448.279C442.779 133.09 438.279 137.59 438.279 143.09C438.279 148.59 442.779 153.09 448.279 153.09H478.079C483.579 153.09 488.079 148.59 488.079 143.09C488.079 137.59 483.579 133.09 478.079 133.09Z" fill="white"/>
<path d="M247.179 78.1896C249.179 80.0896 251.679 81.0897 254.279 81.0897C256.879 81.0897 259.379 80.0896 261.279 78.1896C265.179 74.2896 265.179 67.9897 261.279 64.0897L241.379 44.1896C237.479 40.2896 231.179 40.2896 227.279 44.1896C223.379 48.0896 223.379 54.3897 227.279 58.2897L247.179 78.1896Z" fill="white"/>
<path d="M417.179 162.59C421.379 121.49 396.079 84.1898 356.979 73.6898C356.879 73.6898 356.879 73.6898 356.779 73.6898C338.079 68.9898 318.279 71.5898 301.079 80.9898C285.679 89.3898 273.579 102.59 266.379 118.59C265.079 118.19 263.879 117.79 262.579 117.39C235.479 109.29 206.479 111.19 180.879 122.89C162.579 131.19 146.879 144.19 135.079 160.29C99.079 145.59 57.879 153.69 29.779 180.99C0.778965 208.39 -7.92103 249.99 7.57897 286.99C14.679 304.69 27.079 319.69 43.179 330.39C59.379 341.09 78.179 346.79 97.779 346.79H165.879L134.579 392.39C132.279 395.79 132.279 400.19 134.479 403.59C136.679 406.99 140.779 408.69 144.779 407.89L171.679 402.59L144.379 443.89C141.379 448.49 142.579 454.69 147.179 457.79C148.879 458.89 150.779 459.49 152.679 459.49C155.879 459.49 159.079 457.89 161.079 454.99L201.579 393.69C203.779 390.29 203.779 385.99 201.579 382.59C199.379 379.29 195.279 377.59 191.379 378.39L165.079 383.59L190.279 346.89H229.279C257.579 346.89 284.779 336.79 306.079 318.29C327.379 299.89 341.279 274.39 345.279 246.39V246.29C345.779 242.19 346.079 238.09 346.279 233.89C362.879 232.19 378.579 225.19 391.079 213.79C405.379 200.69 414.679 182.59 417.179 162.79C417.179 162.69 417.179 162.69 417.179 162.59ZM325.379 243.59C318.379 291.79 277.879 326.79 229.179 326.79H97.779C66.379 326.79 37.579 307.79 26.079 279.49V279.39C13.879 250.09 20.679 217.19 43.579 195.59L43.679 195.49C58.679 180.89 78.379 173.09 98.379 173.09C107.179 173.09 116.079 174.59 124.679 177.69C124.079 178.79 123.579 179.99 123.079 181.09C120.779 186.09 123.079 192.09 128.079 194.29C133.079 196.59 139.079 194.29 141.279 189.29C161.379 144.69 209.979 122.59 256.879 136.59C302.179 149.69 331.579 195.69 325.379 243.59ZM397.079 160.29C393.379 189.19 371.879 210.79 344.979 213.89C342.579 196.99 336.579 180.79 327.379 166.29C316.579 149.39 301.879 135.79 284.779 126.59C296.679 100.59 324.579 86.2898 351.879 93.0898C381.379 100.99 400.379 129.19 397.079 160.29Z" fill="white"/>
</svg>
