<svg width="332" height="488" viewBox="0 0 332 488" fill="none" xmlns="http://www.w3.org/2000/svg">
<path d="M331.143 198.8C329.543 195.2 325.943 192.8 321.943 192.8H183.543L288.543 15C290.443 12 290.443 8.1 288.643 5C286.843 1.9 283.543 0 279.943 0H95.043C90.643 0 86.743 2.8 85.443 7L0.442962 282.2C-0.457038 285.2 0.0429618 288.5 1.94296 291.1C3.74296 293.7 6.74296 295.2 9.94296 295.2H136.443L57.643 474C55.743 478.5 57.243 483.7 61.343 486.4C63.043 487.5 64.943 488 66.843 488C69.543 488 72.243 486.9 74.243 484.8L329.343 209.6C332.043 206.7 332.743 202.4 331.143 198.8ZM100.143 427.5L161.143 289.2C162.443 286.1 162.143 282.5 160.343 279.7C158.443 276.9 155.343 275.2 151.943 275.2H23.543L102.343 20.1H262.343L157.343 197.9C155.443 200.9 155.443 204.8 157.243 207.9C159.043 211 162.343 212.9 165.943 212.9H299.043L100.143 427.5Z" fill="white"/>
</svg>
